# xmcd CD database file
#
# Track frame offsets:
#	150
#	28945
#	55730
#	80965
#	104255
#	132677
#	158170
#	207375
#	233952
#
# Disc length: 3481 seconds
#
# Revision: 0
# Processed by: cddbd v1.5.1PL0 Copyright (c) Steve Scherf et al.
# Submitted via: CDex 1.50
#
DISCID=820d9709
DTITLE=Nils Wograms's Nostalgia - Daddy's Bones
DYEAR=1900
DGENRE=Jazz
TTITLE0=Subconsciuos Photograph
TTITLE1=A Flower Is A Lovesome Thing
TTITLE2=Quicktime
TTITLE3=Snoopy
TTITLE4=Lost And Found
TTITLE5=Russioan Intellegence
TTITLE6=Jazz Ain't What It Used To Be
TTITLE7=Daddy's Bones
TTITLE8=Nostalgia
EXTD=
EXTT0=
EXTT1=
EXTT2=
EXTT3=
EXTT4=
EXTT5=
EXTT6=
EXTT7=
EXTT8=
PLAYORDER=
